ply
format ascii 1.0
comment Created by Blender 2.93.2 - www.blender.org
element vertex 507
property float x
property float y
property float z
property float nx
property float ny
property float nz
element face 967
property list uchar uint vertex_indices
end_header
3.547268 0.586751 0.460691 0.183630 0.559435 0.808252
3.641018 0.489468 0.471585 0.715171 -0.414930 0.562395
3.672268 0.555384 0.415894 0.964476 0.140934 0.223395
2.719142 0.555384 0.415894 -0.964476 0.140934 0.223395
2.750392 0.489468 0.471585 -0.715171 -0.414930 0.562395
2.844142 0.586751 0.460691 -0.183630 0.559435 0.808252
3.547268 0.470914 0.513190 0.042543 -0.576708 0.815821
2.844142 0.470914 0.513190 -0.042543 -0.576708 0.815821
3.461330 0.511874 0.503584 -0.615864 -0.255287 0.745323
2.930080 0.511874 0.503584 0.615864 -0.255287 0.745323
3.422268 0.582270 0.454292 -0.926969 0.204413 0.314524
2.969142 0.582270 0.454292 0.926969 0.204413 0.314524
3.461330 0.659065 0.400519 -0.623676 0.781396 0.020112
2.930080 0.659065 0.400519 0.623676 0.781396 0.020112
3.547268 0.682101 0.365315 0.043153 0.964934 -0.258797
2.844142 0.682101 0.365315 -0.043153 0.964934 -0.258797
3.641018 0.636660 0.368521 0.721610 0.664571 -0.193823
2.750392 0.636660 0.368521 -0.721610 0.664571 -0.193823
3.289455 -0.320104 0.895395 -0.517655 -0.298013 0.801996
3.242580 -0.421224 0.928050 -0.295846 0.864437 0.406415
3.289455 -0.384745 0.912044 -0.673757 0.513199 0.531632
3.101955 -0.384745 0.912044 0.673757 0.513199 0.531632
3.148830 -0.421224 0.928050 0.295846 0.864437 0.406415
3.101955 -0.320104 0.895395 0.517655 -0.298013 0.801996
3.195705 0.591192 0.181000 0.000000 0.997253 -0.073702
3.305080 0.640470 0.156032 -0.459304 0.828425 -0.320536
3.195705 0.707660 0.061299 0.000000 0.920194 0.391430
3.086330 0.640470 0.156032 0.459304 0.828425 -0.320536
3.414455 -0.070559 0.434542 0.978698 -0.125126 0.162725
3.406643 -0.312510 0.279690 0.572680 -0.664541 0.479965
3.601955 -0.142282 0.141421 0.579028 -0.575640 0.577319
2.789455 -0.142282 0.141421 -0.579028 -0.575640 0.577319
2.984767 -0.312510 0.279690 -0.572680 -0.664541 0.479965
2.976955 -0.070559 0.434542 -0.978698 -0.125126 0.162725
3.633205 0.105437 0.358994 0.471969 -0.808893 0.350536
3.398830 0.059365 0.429403 0.785699 -0.332316 0.521714
3.406643 -0.003357 0.435173 0.887173 0.119510 0.445662
2.984767 -0.003357 0.435173 -0.887173 0.119510 0.445662
2.992580 0.059365 0.429403 -0.785699 -0.332316 0.521714
2.758205 0.105437 0.358994 -0.471969 -0.808893 0.350536
3.531643 -0.422724 -0.654092 0.445479 -0.764122 -0.466475
3.680080 -0.381106 -0.540173 0.529221 -0.804773 -0.268715
3.539455 -0.517418 -0.435190 0.522263 -0.849574 -0.073733
2.851955 -0.517418 -0.435190 -0.522263 -0.849574 -0.073733
2.711330 -0.381106 -0.540173 -0.529221 -0.804773 -0.268715
2.859767 -0.422724 -0.654092 -0.445479 -0.764122 -0.466475
3.922268 -0.126961 -0.136353 0.857204 -0.488998 0.161351
3.914455 -0.204414 -0.206104 0.731193 0.479446 0.485214
3.914455 -0.162178 -0.254753 0.960936 0.045961 0.272835
2.476955 -0.162178 -0.254753 -0.960936 0.045961 0.272835
2.476955 -0.204414 -0.206104 -0.731193 0.479446 0.485214
2.469142 -0.126961 -0.136353 -0.857204 -0.488998 0.161351
4.234768 -0.055343 -0.606141 0.461776 0.202795 0.863491
4.281643 -0.086697 -0.555575 0.289651 0.776940 0.558977
4.383205 -0.082873 -0.672700 -0.262398 0.024659 0.964629
2.008205 -0.082873 -0.672700 0.262398 0.024659 0.964629
2.109767 -0.086697 -0.555575 -0.289651 0.776940 0.558977
2.156642 -0.055343 -0.606141 -0.461776 0.202795 0.863491
4.445705 -0.016328 -0.795594 0.286996 0.060305 -0.956023
4.562893 -0.130233 -0.658613 0.925260 -0.135838 -0.354106
4.508205 -0.346546 -0.545298 0.636586 -0.747734 -0.188604
1.883205 -0.346546 -0.545298 -0.636586 -0.747734 -0.188604
1.828517 -0.130233 -0.658613 -0.925260 -0.135838 -0.354106
1.945705 -0.016328 -0.795594 -0.286996 0.060305 -0.956023
2.406642 -0.377230 -0.275843 0.098849 -0.994018 0.046358
2.555080 -0.339490 -0.426255 -0.325510 -0.911649 -0.250801
2.601955 -0.283128 -0.141452 -0.312296 -0.777490 0.545824
2.422267 -0.273521 -0.100491 -0.029542 -0.077395 0.996551
3.789455 -0.283128 -0.141452 0.312296 -0.777490 0.545824
3.836330 -0.339490 -0.426255 0.325510 -0.911649 -0.250801
3.984768 -0.377230 -0.275843 -0.098849 -0.994018 0.046358
3.969143 -0.273521 -0.100491 0.029542 -0.077395 0.996551
2.336330 0.007379 -0.611911 0.650044 0.200537 -0.732902
2.422267 -0.119983 -0.589491 -0.670766 -0.461684 -0.580401
3.969143 -0.119983 -0.589491 0.670766 -0.461684 -0.580401
4.055080 0.007379 -0.611911 -0.650044 0.200537 -0.732902
2.305080 0.111718 -0.503760 0.279244 0.959685 0.031068
2.375392 0.065646 -0.433351 -0.908536 0.385846 0.160100
4.016018 0.065646 -0.433351 0.908536 0.385846 0.160100
4.086330 0.111718 -0.503760 -0.279244 0.959685 0.031068
2.172267 -0.006078 -0.726472 0.414228 0.035676 -0.909452
2.156642 -0.439335 -0.432641 0.025269 -0.977203 -0.210730
4.219143 -0.006078 -0.726472 -0.414228 0.035676 -0.909452
4.234768 -0.439335 -0.432641 -0.025269 -0.977203 -0.210730
2.172267 0.124504 -0.608086 -0.018799 0.994781 -0.100009
4.219143 0.124504 -0.608086 0.018799 0.994781 -0.100009
1.961330 0.087368 -0.715605 -0.383557 0.895505 -0.225654
4.430080 0.087368 -0.715605 0.383557 0.895505 -0.225654
1.844142 -0.066223 -0.608060 -0.778802 0.484115 0.398846
4.547268 -0.066223 -0.608060 0.778802 0.484115 0.398846
1.914455 -0.288292 -0.462104 -0.652608 -0.052858 0.755821
4.476955 -0.288292 -0.462104 0.652608 -0.052858 0.755821
2.156642 -0.358031 -0.289286 -0.502884 -0.427320 0.751305
4.234768 -0.358031 -0.289286 0.502884 -0.427320 0.751305
2.086330 -0.137894 -0.519726 -0.383129 0.472182 0.793847
1.937892 -0.170550 -0.620846 0.752861 0.349315 0.557817
4.305080 -0.137894 -0.519726 0.383129 0.472182 0.793847
4.453518 -0.170550 -0.620846 -0.752861 0.349315 0.557817
2.141017 -0.152612 -0.499884 -0.314371 0.456221 0.832453
1.984767 -0.294061 -0.524825 0.583148 0.776757 0.237800
4.406643 -0.294061 -0.524825 -0.583148 0.776757 0.237800
4.250393 -0.152612 -0.499884 0.314371 0.456221 0.832453
2.195705 -0.194847 -0.451236 -0.444807 0.434126 0.783349
2.148830 -0.328608 -0.424336 -0.065004 0.982269 0.175726
4.242580 -0.328608 -0.424336 0.065004 0.982269 0.175695
4.195705 -0.194847 -0.451236 0.444807 0.434126 0.783349
2.258205 -0.228120 -0.389789 -0.408429 0.622700 0.667379
2.312892 -0.251786 -0.287381 0.033113 0.960784 -0.275246
4.133205 -0.228120 -0.389789 0.408429 0.622700 0.667379
4.078518 -0.251786 -0.287381 -0.033113 0.960784 -0.275246
2.344142 -0.257556 -0.350103 -0.292917 0.809290 0.509110
2.383205 -0.283154 -0.332179 -0.644978 0.654622 0.394208
4.008205 -0.283154 -0.332179 0.644978 0.654622 0.394208
4.047268 -0.257556 -0.350103 0.292886 0.809290 0.509110
2.351955 -0.129563 -0.439725 -0.572527 0.061037 0.817591
2.305080 -0.185241 -0.410275 -0.195105 0.594012 0.780419
2.367580 -0.206359 -0.385952 -0.449232 0.774957 0.444502
2.430080 -0.193559 -0.394914 -0.758354 0.559496 0.334361
4.023830 -0.206359 -0.385952 0.449232 0.774957 0.444502
4.086330 -0.185241 -0.410275 0.195105 0.594012 0.780419
4.039455 -0.129563 -0.439725 0.572527 0.061037 0.817591
3.961330 -0.193559 -0.394914 0.758354 0.559496 0.334361
2.234767 -0.147487 -0.465323 -0.334666 0.536699 0.774529
2.305080 -0.078366 -0.475573 -0.659291 -0.046449 0.750420
4.086330 -0.078366 -0.475573 0.659291 -0.046449 0.750420
4.156643 -0.147487 -0.465323 0.334666 0.536699 0.774529
2.180080 -0.109733 -0.520370 -0.334300 0.624531 0.705771
2.242580 -0.047011 -0.526139 -0.648213 0.019501 0.761193
4.148830 -0.047011 -0.526139 0.648213 0.019532 0.761193
4.211330 -0.109733 -0.520370 0.334300 0.624531 0.705771
2.156642 -0.297241 -0.379539 0.186804 0.916196 -0.354503
2.312892 -0.226819 -0.238103 -0.162877 0.982208 -0.093173
4.078518 -0.226819 -0.238103 0.162877 0.982208 -0.093173
4.234768 -0.297241 -0.379539 -0.186804 0.916196 -0.354503
2.008205 -0.265256 -0.497308 0.762139 0.518967 -0.387005
4.383205 -0.265256 -0.497308 -0.762139 0.518967 -0.387005
1.961330 -0.137264 -0.586929 0.984741 0.000214 0.173925
4.430080 -0.137264 -0.586929 -0.984741 0.000214 0.173925
2.023830 -0.043188 -0.643264 0.149571 -0.238166 0.959624
4.367580 -0.043188 -0.643264 -0.149571 -0.238166 0.959624
2.172267 -0.011176 -0.570306 -0.560442 -0.255074 0.787896
4.219143 -0.011176 -0.570306 0.560442 -0.255074 0.787896
2.250392 -0.002845 -0.490304 -0.684164 -0.184423 0.705588
4.141018 -0.002845 -0.490304 0.684164 -0.184423 0.705588
2.383205 -0.256268 -0.293781 -0.599841 0.772454 0.208533
4.008205 -0.256268 -0.293781 0.599841 0.772454 0.208533
2.351955 -0.230669 -0.311705 -0.842036 0.147984 0.518693
4.039455 -0.230669 -0.311705 0.842036 0.147984 0.518693
2.375392 -0.173072 -0.352035 -0.481368 0.866573 0.131535
4.016018 -0.173072 -0.352035 0.481399 0.866543 0.131535
2.437892 -0.166673 -0.356516 -0.851466 0.333720 0.404492
3.953518 -0.166673 -0.356516 0.851466 0.333720 0.404492
2.359767 -0.102677 -0.401327 -0.686361 -0.295785 0.664357
4.031643 -0.102677 -0.401327 0.686361 -0.295785 0.664357
2.305080 -0.040598 -0.435257 -0.726066 -0.137272 0.673727
4.086330 -0.040598 -0.435257 0.726066 -0.137272 0.673727
2.398830 -0.041230 -0.368054 -0.848354 -0.183874 0.496414
2.336330 0.148868 -0.300878 -0.997009 -0.067141 -0.037843
4.055080 0.148868 -0.300878 0.997009 -0.067141 -0.037843
3.992580 -0.041230 -0.368054 0.848354 -0.183874 0.496414
2.351955 0.029167 -0.417346 -0.372723 0.332835 0.866176
4.039455 0.029167 -0.417346 0.372723 0.332835 0.866176
2.273830 0.082282 -0.464075 -0.449232 0.480544 0.753136
4.117580 0.082282 -0.464075 0.449232 0.480544 0.753136
2.367580 -0.220406 -0.147220 -0.329936 0.768853 0.547685
4.023830 -0.220406 -0.147220 0.329936 0.768853 0.547685
2.461330 -0.084699 0.005727 -0.721030 -0.527726 0.448958
2.344142 0.136726 -0.168390 -0.985015 -0.095279 0.143712
4.047268 0.136726 -0.168390 0.985015 -0.095279 0.143712
3.930080 -0.084699 0.005727 0.721030 -0.527726 0.448958
2.180080 0.086750 -0.553039 -0.551164 0.411878 0.725608
4.211330 0.086750 -0.553039 0.551164 0.411878 0.725608
2.008205 0.047695 -0.649677 -0.321451 0.464888 0.824915
4.383205 0.047695 -0.649677 0.321451 0.464888 0.824915
1.930080 -0.082860 -0.577336 0.154454 0.460707 0.873989
4.461330 -0.082860 -0.577336 -0.154454 0.460707 0.873989
1.984767 -0.255650 -0.456347 0.041078 0.799280 0.599536
4.406643 -0.255650 -0.456347 -0.041078 0.799280 0.599536
2.164455 -0.293391 -0.305936 -0.538377 0.694571 0.477157
4.226955 -0.293391 -0.305936 0.538377 0.694571 0.477157
2.766017 -0.367611 -0.139519 -0.563280 -0.739067 0.369366
2.898830 -0.494972 -0.117101 -0.507065 -0.802698 0.313852
3.492580 -0.494972 -0.117101 0.507065 -0.802698 0.313852
3.625393 -0.367611 -0.139519 0.563280 -0.739067 0.369366
2.578517 -0.153927 -0.746933 -0.619648 -0.498367 -0.606311
2.734767 -0.131548 -0.905662 -0.473006 -0.350688 -0.808222
3.656643 -0.131548 -0.905662 0.473006 -0.350688 -0.808222
3.812893 -0.153927 -0.746933 0.619648 -0.498367 -0.606311
2.594142 0.150866 0.260425 -0.544328 -0.716330 0.436476
3.797268 0.150866 0.260425 0.544328 -0.716330 0.436476
2.398830 0.351724 -0.528755 -0.848628 0.425123 -0.314768
2.398830 0.148815 -0.682333 -0.872158 0.042756 -0.487320
3.992580 0.148815 -0.682333 0.872158 0.042756 -0.487320
3.992580 0.351724 -0.528755 0.848628 0.425123 -0.314768
2.398830 0.445839 -0.298999 -0.741752 0.668447 0.054262
3.992580 0.445839 -0.298999 0.741752 0.668447 0.054262
2.469142 0.438836 -0.036587 -0.771722 0.561968 -0.297647
3.922268 0.438836 -0.036587 0.771722 0.561968 -0.297647
2.422267 0.262853 0.134323 -0.930204 -0.366894 0.009857
2.398830 0.510533 0.065807 -0.695700 0.234260 -0.679006
3.992580 0.510533 0.065807 0.695700 0.234260 -0.679006
3.969143 0.262853 0.134323 0.930204 -0.366894 0.009857
2.734767 0.588603 -0.027008 -0.340648 0.908353 -0.242531
2.711330 0.685899 0.057462 -0.226691 0.471023 -0.852473
3.680080 0.685899 0.057462 0.226691 0.471023 -0.852473
3.656643 0.588603 -0.027008 0.340648 0.908353 -0.242531
2.859767 0.817097 0.013282 -0.119297 0.096896 -0.988098
3.000392 0.811342 0.045924 0.476638 0.006378 -0.879055
3.391018 0.811342 0.045924 -0.476638 0.006378 -0.879055
3.531643 0.817097 0.013282 0.119297 0.096896 -0.988098
2.742580 0.745361 -0.375204 -0.444227 0.895749 0.016236
3.195705 0.815126 -0.357292 0.000000 0.999786 -0.020295
3.648830 0.745361 -0.375204 0.444227 0.895749 0.016236
2.562892 0.445866 -0.108271 -0.444411 0.889737 -0.104099
2.516017 0.566855 0.064519 -0.345531 0.621723 -0.702872
3.875393 0.566855 0.064519 0.345531 0.621723 -0.702872
3.828518 0.445866 -0.108271 0.444411 0.889737 -0.104099
2.555080 0.520703 -0.437254 -0.668172 0.733634 -0.123630
3.836330 0.520703 -0.437254 0.668172 0.733634 -0.123630
2.742580 0.634595 -0.669600 -0.413495 0.767754 -0.489395
2.555080 0.415706 -0.668929 -0.678396 0.559221 -0.476455
3.648830 0.634595 -0.669600 0.413495 0.767754 -0.489395
3.836330 0.415706 -0.668929 0.678396 0.559221 -0.476455
2.742580 0.404155 -0.889737 -0.391247 0.423017 -0.817255
2.555080 0.214716 -0.833388 -0.607532 0.149052 -0.780145
3.648830 0.404155 -0.889737 0.391247 0.423017 -0.817255
3.836330 0.214716 -0.833388 0.607532 0.149052 -0.780145
3.195705 0.335652 -1.042053 0.000000 0.367107 -0.930143
3.195705 -0.114294 -1.098952 0.000000 -0.234962 -0.971984
3.195705 0.674911 -0.707366 0.000000 0.831874 -0.554918
3.195705 -0.504027 -0.797446 0.000000 -0.796045 -0.605213
3.016017 -0.277936 0.369929 -0.689352 -0.707572 0.155309
2.961330 -0.141599 0.455673 -0.895657 0.003265 -0.444685
3.430080 -0.141599 0.455673 0.895657 0.003265 -0.444685
3.375393 -0.277936 0.369929 0.689352 -0.707572 0.155309
3.195705 -0.356664 0.339218 0.000000 -0.910398 0.413709
3.195705 -0.322089 0.429457 0.000000 -0.996826 -0.079257
3.195705 -0.601861 -0.147167 0.000000 -0.964385 0.264443
3.195705 -0.631994 -0.517097 0.000000 -0.980712 -0.195379
2.758205 0.102888 0.437078 -0.348827 -0.772332 0.530808
2.992580 0.082415 0.489563 -0.891537 -0.093356 0.443159
3.398830 0.082415 0.489563 0.891537 -0.093356 0.443159
3.633205 0.102888 0.437078 0.348827 -0.772332 0.530808
2.961330 0.026737 0.519012 -0.930601 0.353862 -0.093539
3.430080 0.026737 0.519012 0.930570 0.353862 -0.093539
2.937892 -0.024460 0.554860 -0.927763 0.358501 -0.103427
2.883205 -0.117892 0.639357 -0.955718 0.293863 -0.014710
3.508205 -0.117892 0.639357 0.955718 0.293863 -0.014710
3.453518 -0.024460 0.554860 0.927763 0.358501 -0.103427
2.945705 -0.272154 0.528013 -0.779839 -0.367565 -0.506638
2.844142 -0.329080 0.787232 -0.972808 0.201880 0.113407
3.547268 -0.329080 0.787232 0.972808 0.201880 0.113407
3.445705 -0.272154 0.528013 0.779839 -0.367565 -0.506638
3.070705 -0.322077 0.524821 -0.277078 -0.778527 -0.563097
3.320705 -0.322077 0.524821 0.277078 -0.778527 -0.563097
3.031642 -0.610047 0.821832 -0.067476 -0.996063 -0.057131
2.867580 -0.606853 0.771910 -0.555071 -0.781243 -0.285501
3.055080 -0.496785 0.656690 -0.151372 -0.683981 -0.713584
2.906642 -0.449425 0.642603 -0.620380 -0.378887 -0.686666
3.484768 -0.449425 0.642603 0.620380 -0.378887 -0.686666
3.523830 -0.606853 0.771910 0.555071 -0.781243 -0.285501
3.336330 -0.496785 0.656690 0.151372 -0.683981 -0.713584
3.359768 -0.610047 0.821832 0.067476 -0.996063 -0.057131
2.828517 -0.511476 0.867260 -0.945708 -0.097812 0.309824
3.562893 -0.511476 0.867260 0.945708 -0.097812 0.309824
2.867580 -0.560755 0.892228 -0.526658 -0.591296 0.610706
3.523830 -0.560755 0.892228 0.526658 -0.591296 0.610706
3.016017 -0.562029 0.931270 -0.159551 -0.711173 0.684622
3.375393 -0.562029 0.931270 0.159551 -0.711173 0.684622
3.195705 -0.622202 0.858956 0.000000 -0.992828 0.119449
3.195705 -0.561385 0.959430 0.000000 -0.647938 0.761681
3.195705 -0.548626 0.664377 0.000000 -0.791192 -0.611530
3.195705 -0.370080 0.510747 0.000000 -0.735099 -0.677938
2.562892 0.190564 0.385224 -0.587481 -0.529923 0.611530
3.828518 0.190564 0.385224 0.587481 -0.529923 0.611530
2.367580 0.290383 0.200883 -0.906980 -0.402356 0.124302
4.023830 0.290383 0.200883 0.906980 -0.402356 0.124302
2.336330 0.605910 0.161157 -0.845119 0.534440 -0.009796
4.055080 0.605910 0.161157 0.845119 0.534440 -0.009796
2.484767 0.668631 0.155388 -0.517075 0.801080 -0.301462
3.906643 0.668631 0.155388 0.517075 0.801080 -0.301462
2.703517 0.800474 0.139369 -0.597552 0.737205 -0.315287
3.687893 0.800474 0.139369 0.597552 0.737205 -0.315287
2.875392 0.955353 0.088145 -0.231269 0.884335 -0.405469
3.516018 0.955353 0.088145 0.231269 0.884335 -0.405469
3.039455 0.936798 0.129750 0.605060 0.749443 -0.268654
3.351955 0.936798 0.129750 -0.605060 0.749443 -0.268654
3.133205 0.746728 0.253301 0.824183 0.532395 -0.192938
3.258205 0.746728 0.253301 -0.824183 0.532395 -0.192938
3.195705 0.691050 0.282750 0.000000 0.942656 -0.333750
2.992580 0.484343 0.437025 -0.688040 0.623859 0.370586
3.008205 0.484987 0.465186 0.010102 0.514786 0.857234
3.023830 0.540665 0.435737 -0.158055 0.495254 0.854213
3.000392 0.529141 0.405657 -0.801630 0.351817 0.483291
3.367580 0.540665 0.435737 0.158055 0.495254 0.854213
3.383205 0.484987 0.465186 -0.010102 0.514786 0.857234
3.398830 0.484343 0.437025 0.688040 0.623859 0.370586
3.391018 0.529141 0.405657 0.801630 0.351817 0.483291
3.016017 0.604661 0.390926 -0.293405 0.497940 0.816034
3.000392 0.591218 0.371728 -0.789361 0.165807 0.591083
3.375393 0.604661 0.390926 0.293405 0.497940 0.816034
3.391018 0.591218 0.371728 0.789361 0.165807 0.591083
2.984767 0.668657 0.346116 -0.182958 0.476485 0.859890
2.961330 0.642415 0.335879 -0.463454 0.131474 0.876278
3.406643 0.668657 0.346116 0.182958 0.476485 0.859890
3.430080 0.642415 0.335879 0.463454 0.131474 0.876278
2.953517 0.450427 0.470311 -0.432264 0.872250 0.228706
2.969142 0.451070 0.498472 0.031709 0.379162 0.924772
3.422268 0.451070 0.498472 -0.031709 0.379162 0.924772
3.437893 0.450427 0.470311 0.432264 0.872250 0.228706
2.820705 0.400505 0.467118 -0.143101 0.926206 0.348796
2.820705 0.390267 0.493360 -0.184454 0.400830 0.897366
3.570705 0.390267 0.493360 0.184454 0.400830 0.897366
3.570705 0.400505 0.467118 0.143101 0.926206 0.348796
2.734767 0.412660 0.429994 0.165258 0.944090 0.285165
2.719142 0.408822 0.451755 -0.299020 0.517747 0.801538
3.672268 0.408822 0.451755 0.299020 0.517747 0.801538
3.656643 0.412660 0.429994 -0.165258 0.944090 0.285165
2.648830 0.471531 0.350623 0.192145 0.708823 0.678671
2.617580 0.463213 0.365985 -0.294290 0.461440 0.836909
3.773830 0.463213 0.365985 0.294290 0.461440 0.836909
3.742580 0.471531 0.350623 -0.192145 0.708823 0.678671
2.641017 0.529127 0.310294 0.422895 0.427778 0.798822
2.609767 0.544489 0.318611 -0.177587 0.513565 0.839442
3.781643 0.544489 0.318611 0.177587 0.513565 0.839442
3.750393 0.529127 0.310294 -0.422895 0.427778 0.798822
2.664455 0.578406 0.285326 0.142308 -0.018311 0.989624
2.633205 0.600168 0.289163 -0.294351 0.551958 0.780175
3.758205 0.600168 0.289163 0.294351 0.551958 0.780175
3.726955 0.578406 0.285326 -0.142308 -0.018311 0.989624
2.781642 0.663533 0.311555 0.274056 -0.449019 0.850429
2.773830 0.683376 0.326273 -0.088687 0.462447 0.882168
3.617580 0.683376 0.326273 0.088687 0.462447 0.882168
3.609768 0.663533 0.311555 -0.274056 -0.449019 0.850429
2.859767 0.676332 0.302593 -0.113315 0.283273 0.952300
2.859767 0.700012 0.295549 -0.203619 0.642964 0.738304
3.531643 0.700012 0.295549 0.203619 0.642964 0.738304
3.531643 0.676332 0.302593 0.113315 0.283273 0.952300
2.914455 0.678895 0.319873 -0.174413 0.323588 0.929960
2.922267 0.702574 0.312830 -0.131504 0.620594 0.773003
3.469143 0.702574 0.312830 0.131504 0.620594 0.773003
3.476955 0.678895 0.319873 0.174413 0.323588 0.929960
3.031642 0.696175 0.317311 -0.367840 0.275582 0.888089
2.945705 0.732010 0.273144 -0.258156 0.445723 0.857112
3.445705 0.732010 0.273144 0.258156 0.445723 0.857112
3.359768 0.696175 0.317311 0.367840 0.275582 0.888089
2.867580 0.729448 0.255864 -0.149022 0.433912 0.888516
3.523830 0.729448 0.255864 0.149022 0.433912 0.888516
2.766017 0.684006 0.259070 -0.219001 0.589679 0.777337
3.625393 0.684006 0.259070 0.219001 0.589679 0.777337
2.594142 0.601442 0.250122 -0.225410 0.223518 0.948241
3.797268 0.601442 0.250122 0.225410 0.223518 0.948241
2.555080 0.528483 0.282133 -0.358806 0.433332 0.826685
3.836330 0.528483 0.282133 0.358806 0.433363 0.826685
2.570705 0.438889 0.344868 -0.460219 0.365062 0.809229
3.820705 0.438889 0.344868 0.460219 0.365062 0.809229
2.703517 0.349938 0.435763 -0.427900 0.148717 0.891476
3.687893 0.349938 0.435763 0.427900 0.148717 0.891476
2.820705 0.329464 0.488248 -0.158940 0.079928 0.984039
3.570705 0.329464 0.488248 0.158940 0.079928 0.984039
2.992580 0.415866 0.475436 0.128178 0.304392 0.943846
3.398830 0.415866 0.475436 -0.128178 0.304392 0.943846
3.031642 0.458744 0.454949 0.239296 0.282662 0.928861
3.359768 0.458744 0.454949 -0.239296 0.282662 0.928861
3.070705 0.602099 0.373646 -0.031587 0.418134 0.907804
3.320705 0.602099 0.373646 0.031587 0.418134 0.907804
3.062892 0.520823 0.421019 0.200598 0.445998 0.872250
3.328518 0.520823 0.421019 -0.200598 0.445998 0.872250
3.195705 -0.427623 0.932531 0.000000 0.922086 0.386914
3.195705 -0.350184 0.906919 0.000000 -0.162328 0.986724
3.195705 -0.307936 0.953635 0.000000 -0.631245 0.775567
3.101955 -0.277857 0.942111 0.136876 0.049074 0.989349
3.289455 -0.277857 0.942111 -0.136876 0.049074 0.989349
3.101955 -0.350815 0.974122 0.635121 0.477371 0.607196
3.289455 -0.350815 0.974122 -0.635121 0.477371 0.607196
3.148830 -0.402656 0.981809 0.414106 0.877407 0.242134
3.242580 -0.402656 0.981809 -0.414106 0.877407 0.242134
3.195705 -0.409055 0.986290 0.000000 0.933378 0.358837
3.133205 -0.410974 0.997172 0.058870 0.219855 0.973724
3.195705 -0.421855 0.995252 0.000000 0.254158 0.967132
3.258205 -0.410974 0.997172 -0.058870 0.219855 0.973724
3.078517 -0.363614 0.983085 -0.130680 0.277444 0.951781
3.312893 -0.363614 0.983085 0.130680 0.277444 0.951781
3.086330 -0.254176 0.935067 -0.145940 0.464766 0.873287
3.305080 -0.254176 0.935067 0.145940 0.464766 0.873287
3.195705 -0.292574 0.961953 0.000000 -0.016419 0.999847
3.031642 0.122757 0.642524 -0.775140 0.393353 0.494339
3.070705 0.296204 0.645059 -0.056093 0.336131 0.940123
3.320705 0.296204 0.645059 0.056093 0.336131 0.940123
3.359768 0.122757 0.642524 0.775140 0.393353 0.494339
3.016017 0.065161 0.682853 -0.650655 0.548967 0.524644
3.375393 0.065161 0.682853 0.650655 0.548967 0.524644
2.984767 -0.043633 0.759031 -0.593677 0.545946 0.591144
3.406643 -0.043633 0.759031 0.593677 0.545946 0.591144
3.117580 -0.021228 0.791029 -0.134098 0.573504 0.808130
3.109767 0.102284 0.695009 -0.500259 0.079684 0.862178
3.281643 0.102284 0.695009 0.500259 0.079684 0.862178
3.273830 -0.021228 0.791029 0.134098 0.573504 0.808130
3.070705 0.157962 0.665559 -0.932157 0.079165 0.353252
3.320705 0.157962 0.665559 0.932157 0.079165 0.353252
3.094142 0.217477 0.614349 -0.501389 0.193335 0.843318
3.297268 0.217477 0.614349 0.501389 0.193335 0.843318
3.195705 0.223877 0.609868 0.176946 0.899838 0.398694
3.195705 0.368506 0.489523 0.000000 0.625050 0.780572
3.117580 0.170131 0.723800 -0.183294 -0.027741 0.982635
3.195705 0.138132 0.746206 0.000000 0.108249 0.994110
3.195705 0.221972 0.716112 0.000000 0.695669 0.718314
3.086330 0.202772 0.729556 -0.448805 0.221900 0.865627
3.273830 0.170131 0.723800 0.183294 -0.027741 0.982635
3.305080 0.202772 0.729556 0.448805 0.221900 0.865627
3.101955 0.251407 0.676426 -0.361095 0.847591 0.388806
3.148830 0.257806 0.671946 0.185736 0.936125 0.298502
3.242580 0.257806 0.671946 -0.185736 0.936125 0.298502
3.289455 0.251407 0.676426 0.361095 0.847591 0.388806
3.062892 0.184848 0.703957 -0.926237 -0.033906 0.375347
3.101955 0.137488 0.718044 -0.583605 -0.324656 0.744285
3.328518 0.184848 0.703957 0.926237 -0.033906 0.375347
3.289455 0.137488 0.718044 0.583605 -0.324656 0.744285
3.086330 0.252681 0.637385 -0.618641 0.706961 -0.342662
3.305080 0.252681 0.637385 0.618641 0.706961 -0.342662
3.156642 0.259081 0.632904 0.240516 0.894162 -0.377575
3.234768 0.259081 0.632904 -0.240516 0.894162 -0.377575
3.195705 0.216847 0.681551 0.194952 0.980651 -0.016541
3.195705 0.099090 0.744931 0.000000 -0.421491 0.906827
3.195705 0.070286 0.717414 0.000000 0.114536 0.993408
3.195705 0.183560 0.647635 1.000000 0.000000 0.000000
3.078517 -0.228578 0.917142 -0.181524 0.526414 0.830592
3.195705 -0.222179 0.912662 0.000000 0.545305 0.838221
3.312893 -0.228578 0.917142 0.181524 0.526414 0.830592
3.195705 -0.021228 0.791029 0.000000 0.573565 0.819147
2.945705 -0.268264 0.887707 -0.565172 0.448500 0.692373
2.930080 -0.377701 0.935725 -0.555650 0.273415 0.785150
3.461330 -0.377701 0.935725 0.555650 0.273415 0.785150
3.445705 -0.268264 0.887707 0.565172 0.448500 0.692373
2.961330 -0.472421 0.963899 -0.350230 -0.130833 0.927458
3.430080 -0.472421 0.963899 0.350230 -0.130833 0.927458
3.031642 -0.485220 0.972861 -0.155370 -0.259041 0.953276
3.359768 -0.485220 0.972861 0.155370 -0.259041 0.953276
3.195705 -0.493539 0.988222 0.000000 -0.272835 0.962035
3.195705 0.525304 0.427418 0.000000 0.377392 0.926023
3.195705 0.671865 0.391557 0.000000 0.503800 0.863796
3.094142 0.749304 0.365945 0.061098 0.551622 0.831843
3.297268 0.749304 0.365945 -0.061098 0.551622 0.831843
2.797267 0.260343 0.498498 -0.344279 -0.009949 0.938780
3.594143 0.260343 0.498498 0.344279 -0.009949 0.938780
2.578517 0.316652 0.401846 -0.499130 0.139714 0.855159
3.812893 0.316652 0.401846 0.499130 0.139714 0.855159
2.469142 0.424802 0.297508 -0.566546 0.174657 0.805261
3.922268 0.424802 0.297508 0.566546 0.174657 0.805261
2.453517 0.596960 0.243721 -0.460707 0.383618 0.800348
3.937893 0.596960 0.243721 0.460707 0.383618 0.800348
2.508205 0.669289 0.278913 -0.480117 0.341899 0.807794
3.883205 0.669289 0.278913 0.480117 0.341899 0.807794
2.758205 0.818411 0.260331 -0.308451 0.548753 0.776971
3.633205 0.818411 0.260331 0.308451 0.548753 0.776971
2.883205 0.917612 0.238557 -0.266579 0.716117 0.645039
3.508205 0.917612 0.238557 0.266579 0.716117 0.645039
2.992580 0.907376 0.264799 0.157384 0.694357 0.702170
3.398830 0.907376 0.264799 -0.157384 0.694357 0.702170
2.726955 0.546421 0.403095 -0.969298 0.131138 0.207923
2.758205 0.486906 0.454305 -0.728996 -0.426893 0.535020
3.633205 0.486906 0.454305 0.728996 -0.426893 0.535020
3.664455 0.546421 0.403095 0.969298 0.131138 0.207923
2.844142 0.470270 0.485028 -0.031404 -0.647023 0.761803
3.547268 0.470270 0.485028 0.031404 -0.647023 0.761803
2.922267 0.504830 0.479903 0.653066 -0.379284 0.655416
3.469143 0.504830 0.479903 -0.653066 -0.379284 0.655416
2.953517 0.568826 0.435093 0.952544 0.163579 0.256569
3.437893 0.568826 0.435093 -0.952544 0.163579 0.256569
2.922267 0.639222 0.385801 0.664357 0.734001 -0.140873
3.469143 0.639222 0.385801 -0.664357 0.734001 -0.140873
2.844142 0.655858 0.355078 -0.025758 0.929258 -0.368480
3.547268 0.655858 0.355078 0.025758 0.929258 -0.368480
2.758205 0.621298 0.360203 -0.736381 0.637562 -0.226356
3.633205 0.621298 0.360203 0.736381 0.637562 -0.226356
2.633205 0.497129 0.332699 -0.800104 0.341716 0.492996
2.695705 0.627684 0.260358 -0.610218 0.760460 0.222022
3.695705 0.627684 0.260358 0.610218 0.760460 0.222022
3.758205 0.497129 0.332699 0.800104 0.341716 0.492996
2.570705 0.434394 0.243104 -0.868221 0.280679 0.409131
2.648830 0.603347 0.143877 -0.668203 0.735221 0.113620
3.742580 0.603347 0.143877 0.668203 0.735221 0.113620
3.820705 0.434394 0.243104 0.868221 0.280679 0.409131
2.844142 0.689749 0.131065 -0.125736 0.990661 -0.052431
2.844142 0.696805 0.250108 -0.103061 0.987426 0.119663
3.547268 0.696805 0.250108 0.103061 0.987426 0.119663
3.547268 0.689749 0.131065 0.125736 0.990661 -0.052431
2.992580 0.659052 0.305156 0.455947 0.841121 0.290811
3.398830 0.659052 0.305156 -0.455947 0.841121 0.290811
3.039455 0.643677 0.201474 0.530595 0.840510 0.109378
3.351955 0.643677 0.201474 -0.530595 0.840510 0.109378
3.117580 0.488167 0.319899 0.809717 0.330821 0.484664
3.055080 0.537459 0.390296 0.689291 0.411756 0.596057
3.336330 0.537459 0.390296 -0.689291 0.411756 0.596057
3.273830 0.488167 0.319899 -0.809717 0.330821 0.484664
2.992580 0.415866 0.475436 0.456282 -0.030854 0.889279
3.398830 0.415866 0.475436 -0.456282 -0.030854 0.889279
3.039455 0.330095 0.421046 0.553850 -0.208563 0.806055
3.351955 0.330095 0.421046 -0.553850 -0.208563 0.806055
2.844142 0.351225 0.492085 -0.099490 -0.241462 0.965270
2.844142 0.248174 0.440258 -0.119327 -0.440413 0.889798
3.547268 0.351225 0.492085 0.099490 -0.241462 0.965270
3.547268 0.248174 0.440258 0.119327 -0.440413 0.889798
2.695705 0.384498 0.430638 -0.607624 -0.069063 0.791192
3.695705 0.384498 0.430638 0.607624 -0.069063 0.791192
2.648830 0.289766 0.363449 -0.680166 -0.167089 0.713736
3.742580 0.289766 0.363449 0.680166 -0.167089 0.713736
3 0 1 2
3 3 4 5
3 6 1 0
3 5 4 7
3 0 8 6
3 7 9 5
3 0 10 8
3 9 11 5
3 0 12 10
3 11 13 5
3 0 14 12
3 13 15 5
3 0 16 14
3 15 17 5
3 0 2 16
3 17 3 5
3 18 19 20
3 21 22 23
3 24 25 26
3 26 27 24
3 28 29 30
3 31 32 33
3 34 35 36
3 37 38 39
3 40 41 42
3 43 44 45
3 46 47 48
3 49 50 51
3 52 53 54
3 55 56 57
3 58 59 60
3 61 62 63
3 64 65 66
3 64 66 67
3 68 69 70
3 68 70 71
3 64 72 73
3 64 73 65
3 74 75 70
3 74 70 69
3 76 77 72
3 77 73 72
3 74 78 75
3 78 79 75
3 61 63 80
3 61 80 81
3 82 58 60
3 82 60 83
3 64 81 72
3 81 80 72
3 82 83 75
3 83 70 75
3 80 84 72
3 84 76 72
3 79 85 75
3 85 82 75
3 63 86 80
3 86 84 80
3 85 87 82
3 87 58 82
3 62 88 63
3 88 86 63
3 87 89 58
3 89 59 58
3 61 90 62
3 90 88 62
3 89 91 59
3 91 60 59
3 81 92 90
3 81 90 61
3 91 93 83
3 91 83 60
3 64 67 92
3 64 92 81
3 93 71 70
3 93 70 83
3 94 56 55
3 94 55 95
3 54 53 96
3 54 96 97
3 98 94 99
3 94 95 99
3 97 96 100
3 96 101 100
3 102 98 103
3 98 99 103
3 100 101 104
3 101 105 104
3 106 102 103
3 106 103 107
3 104 105 108
3 104 108 109
3 106 107 110
3 107 111 110
3 112 109 113
3 109 108 113
3 114 115 116
3 114 116 117
3 118 119 120
3 118 120 121
3 115 114 122
3 114 123 122
3 124 120 125
3 120 119 125
3 126 122 127
3 122 123 127
3 124 125 128
3 125 129 128
3 126 127 57
3 126 57 56
3 52 128 129
3 52 129 53
3 94 98 56
3 98 126 56
3 129 101 53
3 101 96 53
3 98 102 122
3 98 122 126
3 125 105 101
3 125 101 129
3 102 106 122
3 106 115 122
3 119 108 125
3 108 105 125
3 106 110 115
3 110 116 115
3 118 113 119
3 113 108 119
3 103 130 107
3 130 131 107
3 132 133 109
3 133 104 109
3 99 134 103
3 134 130 103
3 133 135 104
3 135 100 104
3 95 136 99
3 136 134 99
3 135 137 100
3 137 97 100
3 55 138 136
3 55 136 95
3 137 139 54
3 137 54 97
3 57 140 138
3 57 138 55
3 139 141 52
3 139 52 54
3 127 142 140
3 127 140 57
3 141 143 128
3 141 128 52
3 107 131 144
3 107 144 111
3 145 132 109
3 145 109 112
3 111 144 146
3 111 146 110
3 147 145 112
3 147 112 113
3 110 146 116
3 146 148 116
3 149 147 118
3 147 113 118
3 116 148 117
3 148 150 117
3 151 149 121
3 149 118 121
3 117 150 152
3 117 152 114
3 153 151 121
3 153 121 120
3 114 152 123
3 152 154 123
3 155 153 124
3 153 120 124
3 123 154 142
3 123 142 127
3 143 155 124
3 143 124 128
3 49 51 156
3 51 157 156
3 158 46 159
3 46 48 159
3 160 156 77
3 156 157 77
3 158 159 78
3 159 161 78
3 154 160 142
3 160 162 142
3 163 161 143
3 161 155 143
3 152 156 154
3 156 160 154
3 161 159 155
3 159 153 155
3 49 156 150
3 156 152 150
3 153 159 151
3 159 48 151
3 146 49 150
3 146 150 148
3 151 48 147
3 151 147 149
3 50 49 144
3 49 146 144
3 147 48 145
3 48 47 145
3 144 131 164
3 144 164 50
3 165 132 145
3 165 145 47
3 162 160 77
3 162 77 76
3 78 161 163
3 78 163 79
3 51 166 167
3 51 167 157
3 168 169 46
3 168 46 158
3 164 67 50
3 67 66 50
3 68 71 47
3 71 165 47
3 50 66 51
3 66 166 51
3 169 68 46
3 68 47 46
3 142 162 170
3 142 170 140
3 171 163 143
3 171 143 141
3 138 140 172
3 140 170 172
3 171 141 173
3 141 139 173
3 136 138 174
3 138 172 174
3 173 139 175
3 139 137 175
3 134 136 176
3 136 174 176
3 175 137 177
3 137 135 177
3 130 134 176
3 130 176 178
3 177 135 133
3 177 133 179
3 131 130 178
3 131 178 164
3 179 133 132
3 179 132 165
3 164 178 92
3 164 92 67
3 93 179 165
3 93 165 71
3 178 176 92
3 176 90 92
3 91 177 93
3 177 179 93
3 176 174 90
3 174 88 90
3 89 175 91
3 175 177 91
3 174 172 88
3 172 86 88
3 87 173 89
3 173 175 89
3 172 170 84
3 172 84 86
3 85 171 173
3 85 173 87
3 162 76 170
3 76 84 170
3 85 79 171
3 79 163 171
3 44 43 180
3 43 181 180
3 182 42 183
3 42 41 183
3 44 180 65
3 180 66 65
3 68 183 69
3 183 41 69
3 44 184 45
3 184 185 45
3 186 187 40
3 187 41 40
3 44 65 184
3 65 73 184
3 74 69 187
3 69 41 187
3 33 37 39
3 33 39 31
3 34 36 28
3 34 28 30
3 31 39 188
3 31 188 166
3 189 34 30
3 189 30 169
3 180 31 66
3 31 166 66
3 169 30 68
3 30 183 68
3 180 181 31
3 181 32 31
3 29 182 30
3 182 183 30
3 190 191 77
3 191 73 77
3 74 192 78
3 192 193 78
3 190 77 157
3 190 157 194
3 158 78 193
3 158 193 195
3 194 157 167
3 194 167 196
3 168 158 195
3 168 195 197
3 167 198 196
3 198 199 196
3 200 201 197
3 201 168 197
3 202 203 27
3 202 27 26
3 25 204 205
3 25 205 26
3 206 207 203
3 207 27 203
3 25 208 204
3 208 209 204
3 210 202 211
3 202 26 211
3 26 205 211
3 205 212 211
3 213 214 202
3 214 203 202
3 204 215 205
3 215 216 205
3 213 202 210
3 213 210 217
3 212 205 216
3 212 216 218
3 217 210 219
3 217 219 220
3 221 212 218
3 221 218 222
3 220 219 223
3 220 223 224
3 225 221 222
3 225 222 226
3 224 223 185
3 224 185 184
3 186 225 226
3 186 226 187
3 224 184 191
3 184 73 191
3 74 187 192
3 187 226 192
3 191 190 220
3 191 220 224
3 222 193 192
3 222 192 226
3 190 194 217
3 190 217 220
3 218 195 193
3 218 193 222
3 194 196 213
3 194 213 217
3 216 197 195
3 216 195 218
3 196 199 214
3 196 214 213
3 215 200 197
3 215 197 216
3 185 223 227
3 185 227 228
3 227 225 186
3 227 186 228
3 223 219 229
3 223 229 227
3 229 221 225
3 229 225 227
3 219 210 229
3 210 211 229
3 211 212 229
3 212 221 229
3 45 185 230
3 185 228 230
3 228 186 230
3 186 40 230
3 166 188 198
3 166 198 167
3 201 189 169
3 201 169 168
3 32 231 33
3 231 232 33
3 233 234 28
3 234 29 28
3 231 32 235
3 231 235 236
3 235 29 234
3 235 234 236
3 32 181 237
3 32 237 235
3 237 182 29
3 237 29 235
3 181 43 237
3 43 238 237
3 238 42 237
3 42 182 237
3 43 45 238
3 45 230 238
3 230 40 238
3 40 42 238
3 39 38 239
3 38 240 239
3 241 35 242
3 35 34 242
3 37 243 38
3 243 240 38
3 241 244 35
3 244 36 35
3 33 232 245
3 232 246 245
3 247 233 248
3 233 28 248
3 37 33 243
3 33 245 243
3 248 28 244
3 28 36 244
3 249 250 246
3 249 246 232
3 247 251 252
3 247 252 233
3 253 249 231
3 249 232 231
3 233 252 234
3 252 254 234
3 255 256 257
3 256 258 257
3 259 260 261
3 260 262 261
3 253 257 258
3 253 258 249
3 259 261 254
3 259 254 252
3 258 263 250
3 258 250 249
3 251 264 259
3 251 259 252
3 256 265 263
3 256 263 258
3 264 266 260
3 264 260 259
3 255 267 265
3 255 265 256
3 266 268 262
3 266 262 260
3 269 270 267
3 269 267 255
3 268 270 269
3 268 269 262
3 257 271 255
3 271 269 255
3 269 271 262
3 271 261 262
3 253 272 257
3 272 271 257
3 271 272 261
3 272 254 261
3 231 236 253
3 236 272 253
3 272 236 254
3 236 234 254
3 39 239 273
3 39 273 188
3 274 242 34
3 274 34 189
3 188 273 275
3 188 275 198
3 276 274 189
3 276 189 201
3 198 275 199
3 275 277 199
3 278 276 200
3 276 201 200
3 199 277 279
3 199 279 214
3 280 278 200
3 280 200 215
3 214 279 203
3 279 281 203
3 282 280 204
3 280 215 204
3 203 281 206
3 281 283 206
3 284 282 209
3 282 204 209
3 206 283 207
3 283 285 207
3 286 284 208
3 284 209 208
3 207 285 287
3 207 287 27
3 288 286 208
3 288 208 25
3 27 287 289
3 27 289 24
3 289 288 25
3 289 25 24
3 290 291 292
3 290 292 293
3 294 295 296
3 294 296 297
3 293 292 298
3 293 298 299
3 300 294 297
3 300 297 301
3 299 298 302
3 299 302 303
3 304 300 301
3 304 301 305
3 306 307 291
3 306 291 290
3 295 308 309
3 295 309 296
3 310 311 306
3 311 307 306
3 308 312 309
3 312 313 309
3 314 315 310
3 315 311 310
3 312 316 313
3 316 317 313
3 318 319 315
3 318 315 314
3 316 320 321
3 316 321 317
3 322 323 318
3 323 319 318
3 320 324 321
3 324 325 321
3 326 327 323
3 326 323 322
3 324 328 329
3 324 329 325
3 330 331 326
3 331 327 326
3 328 332 329
3 332 333 329
3 334 335 330
3 335 331 330
3 332 336 333
3 336 337 333
3 338 339 335
3 338 335 334
3 336 340 341
3 336 341 337
3 303 302 339
3 303 339 338
3 340 304 305
3 340 305 341
3 302 342 343
3 302 343 339
3 344 345 304
3 344 304 340
3 339 343 346
3 339 346 335
3 347 344 340
3 347 340 336
3 335 346 348
3 335 348 331
3 349 347 336
3 349 336 332
3 331 348 327
3 348 350 327
3 351 349 328
3 349 332 328
3 327 350 323
3 350 352 323
3 353 351 324
3 351 328 324
3 323 352 354
3 323 354 319
3 355 353 324
3 355 324 320
3 319 354 356
3 319 356 315
3 357 355 320
3 357 320 316
3 315 356 358
3 315 358 311
3 359 357 316
3 359 316 312
3 311 358 360
3 311 360 307
3 361 359 312
3 361 312 308
3 307 360 291
3 360 362 291
3 363 361 295
3 361 308 295
3 298 364 302
3 364 342 302
3 345 365 304
3 365 300 304
3 292 366 364
3 292 364 298
3 365 367 294
3 365 294 300
3 291 362 366
3 291 366 292
3 367 363 295
3 367 295 294
3 22 368 369
3 22 369 23
3 369 368 19
3 369 19 18
3 369 370 23
3 370 371 23
3 372 370 18
3 370 369 18
3 23 371 373
3 23 373 21
3 374 372 18
3 374 18 20
3 21 373 375
3 21 375 22
3 376 374 20
3 376 20 19
3 22 375 368
3 375 377 368
3 377 376 368
3 376 19 368
3 375 378 379
3 375 379 377
3 379 380 376
3 379 376 377
3 373 381 378
3 373 378 375
3 380 382 374
3 380 374 376
3 371 383 381
3 371 381 373
3 382 384 372
3 382 372 374
3 370 385 371
3 385 383 371
3 384 385 372
3 385 370 372
3 386 387 240
3 386 240 243
3 241 388 389
3 241 389 244
3 386 243 390
3 243 245 390
3 248 244 391
3 244 389 391
3 390 245 392
3 245 246 392
3 247 248 393
3 248 391 393
3 392 394 390
3 394 395 390
3 396 397 391
3 397 393 391
3 390 395 386
3 395 398 386
3 399 396 389
3 396 391 389
3 386 398 400
3 386 400 387
3 401 399 389
3 401 389 388
3 387 400 402
3 387 402 403
3 402 401 388
3 402 388 403
3 404 405 406
3 404 406 407
3 406 405 408
3 406 408 409
3 410 407 411
3 407 406 411
3 406 409 412
3 409 413 412
3 404 407 414
3 404 414 415
3 416 409 408
3 416 408 417
3 407 410 414
3 410 418 414
3 419 413 416
3 413 409 416
3 410 411 420
3 410 420 418
3 421 412 413
3 421 413 419
3 411 406 422
3 411 422 420
3 422 406 412
3 422 412 421
3 404 415 405
3 415 423 405
3 423 417 405
3 417 408 405
3 415 395 423
3 395 424 423
3 424 396 423
3 396 417 423
3 420 422 402
3 422 425 402
3 422 421 402
3 418 420 400
3 420 402 400
3 402 421 401
3 421 419 401
3 414 418 398
3 418 400 398
3 401 419 399
3 419 416 399
3 415 414 398
3 415 398 395
3 399 416 417
3 399 417 396
3 426 383 427
3 383 385 427
3 385 384 427
3 384 428 427
3 429 394 427
3 394 426 427
3 428 397 427
3 397 429 427
3 429 424 394
3 424 395 394
3 396 424 397
3 424 429 397
3 430 431 383
3 430 383 426
3 384 432 433
3 384 433 428
3 426 394 392
3 426 392 430
3 393 397 428
3 393 428 433
3 434 381 431
3 381 383 431
3 384 382 432
3 382 435 432
3 436 378 381
3 436 381 434
3 382 380 437
3 382 437 435
3 438 379 378
3 438 378 436
3 380 379 438
3 380 438 437
3 366 362 439
3 362 403 439
3 403 363 439
3 363 367 439
3 439 440 364
3 439 364 366
3 365 440 439
3 365 439 367
3 440 441 364
3 441 342 364
3 345 442 365
3 442 440 365
3 403 362 360
3 403 360 387
3 361 363 403
3 361 403 388
3 443 387 360
3 443 360 358
3 361 388 444
3 361 444 359
3 445 443 356
3 443 358 356
3 359 444 357
3 444 446 357
3 447 445 354
3 445 356 354
3 357 446 355
3 446 448 355
3 449 447 352
3 447 354 352
3 355 448 353
3 448 450 353
3 451 449 350
3 449 352 350
3 353 450 351
3 450 452 351
3 453 451 348
3 451 350 348
3 351 452 349
3 452 454 349
3 455 453 346
3 453 348 346
3 349 454 347
3 454 456 347
3 455 346 343
3 455 343 457
3 344 347 456
3 344 456 458
3 457 343 441
3 343 342 441
3 345 344 442
3 344 458 442
3 440 289 441
3 289 287 441
3 288 289 442
3 289 440 442
3 441 287 457
3 287 285 457
3 286 288 458
3 288 442 458
3 457 285 455
3 285 283 455
3 284 286 456
3 286 458 456
3 455 283 281
3 455 281 453
3 282 284 456
3 282 456 454
3 453 281 451
3 281 279 451
3 280 282 452
3 282 454 452
3 451 279 449
3 279 277 449
3 278 280 450
3 280 452 450
3 449 277 447
3 277 275 447
3 276 278 448
3 278 450 448
3 447 275 273
3 447 273 445
3 274 276 448
3 274 448 446
3 445 273 443
3 273 239 443
3 242 274 444
3 274 446 444
3 443 239 240
3 443 240 387
3 241 242 444
3 241 444 388
3 430 392 246
3 430 246 250
3 247 393 433
3 247 433 251
3 431 430 250
3 431 250 263
3 251 433 432
3 251 432 264
3 434 431 263
3 434 263 265
3 264 432 435
3 264 435 266
3 436 434 267
3 434 265 267
3 266 435 268
3 435 437 268
3 438 436 270
3 436 267 270
3 268 437 270
3 437 438 270
3 3 459 460
3 3 460 4
3 461 462 2
3 461 2 1
3 4 460 463
3 4 463 7
3 464 461 1
3 464 1 6
3 7 463 465
3 7 465 9
3 466 464 6
3 466 6 8
3 9 465 467
3 9 467 11
3 468 466 8
3 468 8 10
3 11 467 13
3 467 469 13
3 470 468 12
3 468 10 12
3 13 469 15
3 469 471 15
3 472 470 14
3 470 12 14
3 15 471 17
3 471 473 17
3 474 472 16
3 472 14 16
3 17 473 3
3 473 459 3
3 462 474 2
3 474 16 2
3 475 459 476
3 459 473 476
3 474 462 477
3 462 478 477
3 479 475 480
3 475 476 480
3 477 478 481
3 478 482 481
3 480 476 483
3 476 484 483
3 485 477 486
3 477 481 486
3 476 473 484
3 473 471 484
3 472 474 485
3 474 477 485
3 484 471 487
3 471 469 487
3 470 472 488
3 472 485 488
3 483 484 489
3 484 487 489
3 488 485 490
3 485 486 490
3 489 487 491
3 487 492 491
3 493 488 494
3 488 490 494
3 487 469 467
3 487 467 492
3 468 470 488
3 468 488 493
3 492 467 495
3 467 465 495
3 466 468 496
3 468 493 496
3 491 492 497
3 492 495 497
3 496 493 498
3 493 494 498
3 497 495 499
3 497 499 500
3 501 496 498
3 501 498 502
3 495 465 463
3 495 463 499
3 464 466 496
3 464 496 501
3 499 463 460
3 499 460 503
3 461 464 501
3 461 501 504
3 500 499 503
3 500 503 505
3 504 501 502
3 504 502 506
3 505 503 475
3 505 475 479
3 478 504 506
3 478 506 482
3 503 460 459
3 503 459 475
3 462 461 504
3 462 504 478
